<?xml version="1.0" encoding="utf-8"?>
<!-- Generator: Adobe Illustrator 16.2.0, SVG Export Plug-In . SVG Version: 6.00 Build 0)  -->
<!DOCTYPE svg PUBLIC "-//W3C//DTD SVG 1.1//EN" "http://www.w3.org/Graphics/SVG/1.1/DTD/svg11.dtd">
<svg version="1.1" id="Layer_1" xmlns="http://www.w3.org/2000/svg" xmlns:xlink="http://www.w3.org/1999/xlink" x="0px" y="0px"
	 width="536px" height="337px" viewBox="0 0 536 337" style="enable-background:new 0 0 536 337;" xml:space="preserve">
<style type="text/css">
<![CDATA[
	.st0{fill:#206792;fill-opacity:0.9;}
	.st1{fill:#FFFFFF;}
	.st2{fill:#074768;fill-opacity:0.9;}
]]>
</style>
<g id="bg">
	<rect x="8" y="26" class="st0" width="520" height="131"/>
	<path class="st2" d="M532,22v139H4V22H532 M536,18H0v147h536V18L536,18z"/>
</g>
<rect x="23.41" y="41.047" class="st1" width="7.604" height="48.639"/>
<polygon class="st1" points="50.353,58.418 50.353,89.686 42.749,89.686 42.749,38.752 73.296,72.249 73.296,41.047 80.965,41.047 
	80.965,91.915 "/>
<path class="st1" d="M128.495,85.688c-1.246,0.787-2.557,1.508-3.933,2.098c-3.016,1.245-6.228,1.901-9.505,1.901
	c-3.278,0-6.49-0.656-9.439-1.901c-2.951-1.246-5.507-3.016-7.736-5.244c-2.228-2.229-3.998-4.786-5.244-7.736
	s-1.901-6.161-1.901-9.439s0.655-6.49,1.901-9.505c1.246-2.884,3.016-5.507,5.244-7.736c2.229-2.228,4.785-3.998,7.736-5.178
	c2.949-1.311,6.161-1.901,9.439-1.901c3.277,0,6.489,0.59,9.505,1.901c0.328,0.131,0.721,0.328,1.049,0.459v8.981
	c-2.95-2.426-6.621-3.737-10.554-3.737c-4.458,0-8.653,1.704-11.8,4.916c-3.146,3.147-4.916,7.342-4.916,11.8
	c0,4.457,1.77,8.653,4.916,11.799c3.147,3.147,7.342,4.917,11.8,4.917c4.457,0,8.652-1.77,11.799-4.917
	c0.59-0.59,1.115-1.18,1.639-1.835V85.688z"/>
<path class="st1" d="M150.523,87.785c-2.95-1.245-5.506-3.015-7.735-5.244s-3.999-4.785-5.244-7.735
	c-1.246-2.95-1.902-6.162-1.902-9.44c0-3.277,0.656-6.489,1.902-9.505c1.245-2.884,3.015-5.44,5.244-7.735
	c2.229-2.228,4.785-3.933,7.735-5.178c2.95-1.246,6.162-1.901,9.439-1.901c3.278,0,6.49,0.655,9.506,1.901
	c2.883,1.245,5.44,2.95,7.734,5.178c2.23,2.295,3.934,4.851,5.179,7.735c1.246,3.016,1.901,6.228,1.901,9.505
	c0,3.278-0.655,6.49-1.901,9.44c-1.245,2.95-2.949,5.506-5.179,7.735c-2.294,2.229-4.851,3.999-7.734,5.244
	c-3.016,1.245-6.228,1.901-9.506,1.901C156.686,89.686,153.474,89.03,150.523,87.785 M148.164,53.567
	c-3.146,3.146-4.916,7.342-4.916,11.799c0,4.458,1.77,8.653,4.916,11.8c3.146,3.146,7.342,4.916,11.799,4.916
	c4.458,0,8.653-1.77,11.8-4.916c3.146-3.147,4.917-7.342,4.917-11.8c0-4.457-1.771-8.653-4.917-11.799
	c-3.147-3.146-7.342-4.917-11.8-4.917C155.506,48.65,151.31,50.421,148.164,53.567"/>
<polygon class="st1" points="232.534,89.686 232.534,63.858 217.326,86.54 202.053,63.858 202.053,89.686 194.449,89.686 
	194.449,38.818 217.326,72.905 240.204,38.818 240.204,89.686 "/>
<polygon class="st1" points="259.613,60.843 277.377,60.843 277.377,67.727 259.613,67.727 259.613,82.803 281.179,82.803 
	281.179,89.687 259.548,89.687 252.009,89.687 252.009,41.047 259.548,41.047 281.179,41.047 281.179,47.864 259.613,47.864 "/>
<polygon class="st1" points="344.374,47.864 331.002,47.864 331.002,89.687 323.332,89.687 323.332,47.864 309.96,47.864 
	309.96,41.047 344.374,41.047 "/>
<path class="st1" d="M372.696,79.263h-17.306l-4.13,10.423h-8.391l21.175-50.868l21.106,50.868h-8.325L372.696,79.263z
	 M369.943,72.446l-5.898-14.814l-5.901,14.814H369.943z"/>
<polygon class="st1" points="427.633,89.686 414.654,70.676 401.739,89.686 392.169,89.686 409.868,63.662 394.464,41.047 
	404.034,41.047 414.654,56.648 425.338,41.047 434.909,41.047 419.438,63.662 437.203,89.686 "/>
<polygon class="st1" points="454.186,60.843 471.95,60.843 471.95,67.727 454.186,67.727 454.186,82.803 475.752,82.803 
	475.752,89.687 454.121,89.687 446.582,89.687 446.582,41.047 454.121,41.047 475.752,41.047 475.752,47.864 454.186,47.864 "/>
<path class="st1" d="M512.137,79.919c-1.377,4.72-5.638,8.456-10.947,9.505c-0.983,0.197-1.967,0.262-2.949,0.262
	c-1.967,0-3.934-0.328-5.77-1.049c-3.081-1.245-5.769-3.278-8.063-6.227l6.03-4.72c1.377,1.835,3.016,3.146,4.786,3.802
	c1.441,0.59,3.016,0.721,4.457,0.393c2.491-0.458,4.523-2.097,5.113-4.064c0.655-2.229-0.852-4.195-2.228-5.506
	c-2.163-2.032-5.703-5.506-5.967-5.769l-5.965-5.637c-1.836-1.77-3.081-3.737-3.736-5.834c-0.656-2.032-0.722-4.196-0.131-6.162
	c0.59-2.098,1.835-3.933,3.604-5.441c1.64-1.376,3.671-2.36,5.835-2.753c2.36-0.525,4.851-0.328,7.21,0.524
	c2.491,0.984,4.72,2.622,6.621,4.917l-5.966,4.785c-2.49-3.015-5.046-3.015-6.424-2.753c-1.703,0.328-3.146,1.442-3.538,2.819
	c-0.264,0.917-0.198,2.425,1.835,4.391l8.127,7.801c1.181,1.18,2.624,2.557,3.672,3.54c2.098,1.901,3.539,4.064,4.261,6.359
	C512.727,75.33,512.792,77.69,512.137,79.919"/>
<path class="st1" d="M136.022,113.125h1.603v33.749h-1.603V113.125z M140.328,146.873h-1.603v-33.749h1.603V146.873z"/>
<path class="st1" d="M150.766,113.125h1.603v32.146h13.096v1.602h-14.699V113.125z M165.464,144.172h-11.997v-31.047h1.602v29.444
	h10.395V144.172z"/>
<path class="st1" d="M173.934,113.125h1.602v32.146h13.097v1.602h-14.699V113.125z M188.632,144.172h-11.997v-31.047h1.602v29.444
	h10.395V144.172z"/>
<path class="st1" d="M210.609,113.17h1.602v24.773c0,2.794-0.596,4.946-1.832,6.457c-0.916,1.236-2.655,2.519-5.723,2.519
	c-3.069,0-4.809-1.283-5.724-2.519c-1.236-1.511-1.832-3.663-1.832-6.457V113.17h1.602v24.773c0,4.809,2.061,7.373,5.954,7.373
	c1.968,0,3.48-0.641,4.441-1.923c1.008-1.236,1.512-3.023,1.512-5.45V113.17z M199.802,113.17h1.603v24.773
	c0,2.336,0.503,3.526,1.19,4.076c0.686,0.596,1.465,0.596,2.061,0.596c0.595,0,1.374,0,2.06-0.596c0.687-0.55,1.19-1.74,1.19-4.076
	V113.17h1.603v24.773c0,4.351-1.557,6.274-4.853,6.274c-3.251,0-4.854-1.923-4.854-6.274V113.17z"/>
<path class="st1" d="M238.63,124.985h-1.648v-2.153c0-5.357-2.152-8.013-6.41-8.013c-4.167,0-6.457,3.388-6.457,8.013
	c0,2.611,1.007,4.396,2.29,5.587c1.236,1.191,2.701,1.832,3.571,2.198l0.778,0.366c0.779,0.321,2.061,0.778,3.16,1.786
	c1.099,1.008,2.015,2.564,2.015,4.808c0,4.213-2.015,6.64-5.357,6.64c-3.619,0-5.358-2.106-5.358-6.869v-2.152h1.603v2.152
	c0,1.969,0.366,3.389,1.052,4.259c0.138,0.229,0.413,0.412,0.825,0.641s1.007,0.367,1.878,0.367c1.648,0,2.564-0.825,3.113-1.833
	c0.504-1.007,0.596-2.289,0.596-3.205c0-1.603-0.55-2.656-1.329-3.434c-0.778-0.733-1.832-1.237-2.793-1.649l-0.824-0.366
	c-0.962-0.412-2.61-1.099-4.076-2.518c-1.831-1.787-2.747-4.03-2.747-6.778c0-2.885,0.778-5.312,2.244-7.006
	c1.419-1.649,3.434-2.656,5.816-2.656c3.296,0,5.128,1.42,6.089,2.656c1.329,1.694,1.969,4.03,1.969,7.006V124.985z
	 M222.512,135.196h1.603v2.152c0,5.267,2.198,7.968,6.457,7.968c2.014,0,3.709-0.778,4.807-2.289
	c1.054-1.328,1.603-3.252,1.603-5.45c0-2.61-1.053-4.396-2.289-5.541c-1.283-1.144-2.748-1.74-3.527-2.06l-0.732-0.321
	c-0.87-0.366-2.152-0.916-3.251-2.015c-1.1-1.053-1.969-2.564-1.969-4.808c0-1.602,0.32-3.343,1.191-4.671
	c0.87-1.327,2.197-2.289,4.167-2.289c3.525,0,5.357,2.198,5.357,6.96v2.153h-1.648v-2.153c0-2.61-0.596-4.03-1.374-4.671
	c-0.779-0.641-1.741-0.641-2.335-0.641c-1.787,0-2.657,0.962-3.161,2.153c-0.548,1.19-0.594,2.564-0.594,3.159
	c0,1.603,0.549,2.656,1.328,3.48c0.778,0.824,1.831,1.42,2.93,1.832l0.733,0.321c0.87,0.366,2.518,0.961,3.983,2.381
	c1.878,1.74,2.839,3.984,2.839,6.731c0,5.175-2.885,9.342-8.058,9.342c-5.358,0-8.06-3.526-8.06-9.571V135.196z"/>
<path class="st1" d="M266.194,114.819H247.1v-1.648h19.095V114.819z M247.1,115.872h9.021v31.047h-1.649v-29.398H247.1V115.872z
	 M257.173,146.919v-31.047h9.021v1.649h-7.373v29.398H257.173z"/>
<path class="st1" d="M291.147,146.918h-1.648v-9.982c0-2.244-0.642-4.03-1.97-5.358c-0.549-0.503-1.19-0.915-1.923-1.236
	c2.564-0.962,3.847-3.48,3.847-7.556c0-5.449-2.152-7.968-6.961-7.968h-7.006v-1.648h7.006c5.815,0,8.563,3.343,8.563,9.616
	c0,3.114-0.688,5.495-2.015,7.098c-0.046,0.046-0.138,0.137-0.184,0.229c-0.092,0.092-0.183,0.183-0.274,0.229
	c1.648,1.603,2.564,3.801,2.564,6.594V146.918z M275.486,115.873h1.603v31.047h-1.603V115.873z M278.188,129.748v-13.875h4.304
	c4.167,0,5.862,2.015,5.862,6.914c0,4.946-1.695,6.961-5.862,6.961H278.188z M288.445,146.918h-1.648v-9.982
	c0-2.977-1.42-4.442-4.305-4.442h-2.701v14.424h-1.603v-16.072h4.304c3.801,0,5.953,2.197,5.953,6.09V146.918z M279.791,117.521
	v10.624h2.701c1.146,0,1.97-0.138,2.427-0.412c0.412-0.275,0.688-0.504,0.824-0.641c0.688-0.87,1.008-2.29,1.008-4.305
	c0-2.244-0.366-3.572-1.053-4.35c-0.733-0.732-1.786-0.916-3.206-0.916H279.791z"/>
<path class="st1" d="M309.734,113.17h3.435l7.83,33.749h-1.694l-7.372-31.825h-1.008l-7.372,31.825h-1.648L309.734,113.17z
	 M306.346,146.919h-1.694l2.564-11.036h8.426l2.564,11.036h-1.648l-2.198-9.387h-5.861L306.346,146.919z M311.429,117.75
	l3.938,17.08h-7.922L311.429,117.75z M311.429,124.939l-1.923,8.243h3.847L311.429,124.939z"/>
<path class="st1" d="M348.426,114.819H329.33v-1.648h19.096V114.819z M329.33,115.872h9.021v31.047h-1.649v-29.398h-7.372V115.872z
	 M339.404,146.919v-31.047h9.021v1.649h-7.373v29.398H339.404z"/>
<path class="st1" d="M359.366,114.819v30.497h12.364v1.603h-13.967V113.17h13.967v1.649H359.366z M360.466,115.873h11.265v1.648
	h-9.661v10.349h9.661v1.649h-11.265V115.873z M360.466,130.571h11.265v1.648h-9.661v10.396h9.661v1.602h-11.265V130.571z"/>
<path class="st1" d="M396.912,137.166c0,6.182-2.747,9.753-8.563,9.753h-6.731v-1.602h6.731c2.335,0,4.075-0.687,5.312-2.107
	c1.1-1.374,1.648-3.388,1.648-6.044V122.97c0-5.311-2.242-8.151-6.96-8.151h-6.731v-1.648h6.731c2.886,0,5.083,0.916,6.548,2.747
	c1.328,1.603,2.015,3.984,2.015,7.052V137.166z M381.618,115.873h1.603v28.346h-1.603V115.873z M384.32,144.218v-28.345h4.029
	c2.061,0,3.571,0.595,4.441,1.74c0.962,1.145,1.42,2.93,1.42,5.357v14.196c0,2.427-0.458,4.212-1.42,5.358
	c-0.915,1.144-2.381,1.694-4.441,1.694H384.32z M385.923,117.521v25.095h2.427c1.099,0,2.152-0.092,2.931-0.825
	c0.732-0.733,1.282-2.106,1.282-4.625V122.97c0-2.518-0.55-3.892-1.282-4.625c-0.778-0.732-1.832-0.824-2.931-0.824H385.923z"/>
<path class="st1" d="M121.808,239.467h-2.819l-0.44-3.302h-1.851l-0.44,3.302h-2.819l2.517-16.672h3.334L121.808,239.467z
	 M119.425,238.967h1.801l-2.366-15.672h-2.475l-2.366,15.672h1.801l0.44-3.302h2.725L119.425,238.967z M118.722,233.657h-2.199
	l0.82-6.021h0.559l0.1,0.634L118.722,233.657z M117.094,233.157h1.057l-0.529-3.953L117.094,233.157z"/>
<path class="st1" d="M134.777,239.466h-2.806l-2.54-16.671h2.82l1.123,8.404l1.123-8.404h2.82L134.777,239.466z M132.401,238.966
	h1.946l2.388-15.671h-1.8l-1.275,9.57h-0.572l-1.275-9.57h-1.8L132.401,238.966z"/>
<path class="st1" d="M142.931,239.466h-2.876v-16.671h2.876V239.466z M140.555,238.966h1.876v-15.671h-1.876V238.966z"/>
<path class="st1" d="M113.729,239.215l2.442-16.172h2.904l2.443,16.172h-2.311l-0.44-3.301h-2.288l-0.44,3.301H113.729z
	 M117.755,228.301l-0.066-0.418h-0.132l-0.066,0.418l-0.682,5.105h1.628L117.755,228.301z"/>
<polygon class="st1" points="134.695,223.043 137.005,223.043 134.542,239.215 132.166,239.215 129.7,223.043 132.01,223.043 
	133.198,231.932 133.288,232.614 133.419,232.614 133.507,231.932 "/>
<rect x="140.283" y="223.043" class="st1" width="2.376" height="16.172"/>
<path class="st1" d="M150.557,227.377c0-0.528-0.022-1.122-0.176-1.584c-0.154-0.44-0.396-0.748-0.77-0.748
	c-0.616,0.021-0.814,0.66-0.814,1.606c0,0.55,0.241,1.122,0.593,1.738c0.353,0.616,0.815,1.254,1.277,1.936
	c0.55,0.814,1.1,1.65,1.518,2.465c0.418,0.815,0.704,1.65,0.704,2.53c0,1.078-0.176,2.09-0.682,2.838
	c-0.506,0.749-1.32,1.232-2.618,1.232c-1.518,0-2.377-0.572-2.861-1.451c-0.484-0.881-0.594-2.047-0.594-3.257l2.333-0.221
	c0,0.683,0.022,1.364,0.197,1.87c0.155,0.528,0.419,0.881,0.925,0.881c0.704,0,0.968-0.748,0.968-1.782
	c0-0.528-0.264-1.145-0.616-1.782c-0.198-0.309-0.396-0.639-0.616-0.969c-0.462-0.66-0.969-1.407-1.497-2.222
	s-0.924-1.65-1.166-2.509c-0.132-0.418-0.198-0.858-0.198-1.298c0-0.88,0.198-1.826,0.704-2.553c0.507-0.704,1.277-1.21,2.399-1.232
	c1.43-0.021,2.266,0.573,2.728,1.431c0.462,0.88,0.594,1.958,0.594,2.86L150.557,227.377z"/>
<path class="st1" d="M162.679,223.043v12.851c-0.022,0.659-0.154,1.254-0.396,1.759c-0.198,0.44-0.506,0.858-0.946,1.188
	c-0.441,0.352-1.034,0.55-1.827,0.55c-0.792,0-1.408-0.198-1.848-0.55c-0.44-0.33-0.726-0.748-0.924-1.188
	c-0.242-0.505-0.374-1.1-0.396-1.759v-12.851h2.376v12.851c0,0.462,0.11,0.769,0.33,1.011c0.11,0.11,0.264,0.176,0.462,0.176
	c0.419,0,0.616-0.264,0.704-0.594c0.067-0.154,0.089-0.352,0.089-0.593v-12.851H162.679z"/>
<path class="st1" d="M165.934,239.215l2.442-16.172h2.904l2.443,16.172h-2.31l-0.44-3.301h-2.288l-0.441,3.301H165.934z
	 M169.96,228.301l-0.066-0.418h-0.132l-0.067,0.418l-0.681,5.105h1.628L169.96,228.301z"/>
<polygon class="st1" points="177,223.043 179.376,223.043 179.376,237.015 182.522,237.015 182.522,239.215 177,239.215 "/>
<path class="st1" d="M195.062,228.852v-2.486c0-0.44-0.088-0.747-0.308-1.013c-0.11-0.108-0.286-0.176-0.484-0.176
	c-0.418,0-0.616,0.308-0.704,0.594c-0.066,0.177-0.088,0.374-0.088,0.595v9.726c0,0.462,0.11,0.77,0.33,1.012
	c0.11,0.11,0.264,0.176,0.462,0.176c0.418,0,0.616-0.264,0.704-0.594c0.067-0.154,0.088-0.353,0.088-0.594v-2.927h-0.946v-2.001
	h3.323v8.052h-1.408l-0.286-0.771c-0.441,0.552-1.079,0.946-1.849,0.946c-0.771,0-1.298-0.198-1.694-0.55
	c-0.396-0.33-0.661-0.748-0.836-1.188c-0.199-0.506-0.286-1.1-0.264-1.76v-9.527c0.022-0.639,0.153-1.232,0.396-1.738
	c0.198-0.44,0.484-0.879,0.923-1.21c0.441-0.33,1.057-0.55,1.849-0.55s1.386,0.22,1.826,0.55c0.441,0.331,0.748,0.77,0.946,1.21
	c0.243,0.506,0.374,1.1,0.397,1.738v2.486H195.062z"/>
<path class="st1" d="M207.69,223.043v12.851c-0.022,0.659-0.154,1.254-0.396,1.759c-0.199,0.44-0.506,0.858-0.947,1.188
	c-0.439,0.352-1.034,0.55-1.826,0.55s-1.408-0.198-1.848-0.55c-0.44-0.33-0.726-0.748-0.924-1.188
	c-0.243-0.505-0.374-1.1-0.396-1.759v-12.851h2.376v12.851c0,0.462,0.11,0.769,0.33,1.011c0.11,0.11,0.264,0.176,0.462,0.176
	c0.418,0,0.616-0.264,0.704-0.594c0.067-0.154,0.088-0.352,0.088-0.593v-12.851H207.69z"/>
<rect x="211.604" y="223.043" class="st1" width="2.377" height="16.172"/>
<path class="st1" d="M217.941,239.215v-16.172h1.87c2.201,0,3.389,0.44,4.028,1.672c0.616,1.232,0.704,3.257,0.704,6.425
	c0,3.169-0.088,5.171-0.704,6.403c-0.639,1.232-1.827,1.672-4.028,1.672H217.941z M220.318,236.839c0.813,0,1.275-0.089,1.518-0.881
	c0.11-0.374,0.198-0.945,0.22-1.716s0.022-1.804,0.022-3.125c0-1.319,0-2.354-0.022-3.124c-0.022-0.748-0.11-1.32-0.22-1.716
	c-0.243-0.771-0.705-0.858-1.518-0.858V236.839z"/>
<polygon class="st1" points="228.302,223.043 233.737,223.043 233.737,225.484 230.679,225.484 230.679,229.731 232.879,229.731 
	232.879,232.328 230.679,232.328 230.679,236.772 233.737,236.772 233.737,239.215 228.302,239.215 "/>
<polygon class="st1" points="242.008,225.484 242.008,223.044 248.874,223.044 248.874,225.484 246.629,225.484 246.629,239.215 
	244.252,239.215 244.252,225.484 "/>
<path class="st1" d="M258.179,235.893c-0.023,0.661-0.154,1.254-0.397,1.76c-0.198,0.441-0.505,0.859-0.946,1.189
	c-0.44,0.351-1.034,0.549-1.826,0.549s-1.408-0.198-1.849-0.549c-0.439-0.33-0.725-0.748-0.923-1.189
	c-0.243-0.506-0.374-1.099-0.396-1.76v-9.527c0.022-0.639,0.153-1.231,0.396-1.738c0.198-0.44,0.484-0.88,0.923-1.21
	c0.441-0.33,1.057-0.551,1.849-0.551s1.386,0.221,1.826,0.551c0.441,0.33,0.748,0.77,0.946,1.21c0.243,0.507,0.374,1.1,0.397,1.738
	V235.893z M255.802,226.365c0-0.439-0.088-0.748-0.308-1.013c-0.11-0.109-0.286-0.175-0.484-0.175c-0.418,0-0.616,0.307-0.704,0.593
	c-0.066,0.177-0.088,0.374-0.088,0.595v9.527c0,0.462,0.11,0.77,0.33,1.012c0.11,0.11,0.264,0.176,0.462,0.176
	c0.418,0,0.616-0.264,0.704-0.594c0.067-0.154,0.088-0.351,0.088-0.594V226.365z"/>
<rect x="267.572" y="223.043" class="st1" width="2.375" height="16.172"/>
<polygon class="st1" points="276.415,230.788 276.217,230.039 276.085,230.039 276.085,239.215 273.906,239.215 273.906,223.043 
	276.02,223.043 278.329,231.47 278.527,232.218 278.659,232.218 278.659,223.043 280.838,223.043 280.838,239.215 278.726,239.215 
	"/>
<path class="st1" d="M290.98,233.67v2.223c-0.021,0.66-0.154,1.255-0.396,1.76c-0.199,0.44-0.507,0.858-0.947,1.188
	c-0.439,0.352-1.034,0.55-1.826,0.55s-1.408-0.198-1.849-0.55c-0.439-0.33-0.726-0.748-0.923-1.188
	c-0.243-0.505-0.374-1.1-0.396-1.76v-9.527c0.022-0.639,0.153-1.232,0.396-1.738c0.197-0.44,0.483-0.88,0.923-1.21
	c0.44-0.33,1.057-0.551,1.849-0.551s1.387,0.221,1.826,0.551c0.44,0.33,0.748,0.77,0.947,1.21c0.241,0.506,0.374,1.1,0.396,1.738
	v2.222h-2.223v-2.222c0-0.44-0.11-0.748-0.353-1.013c-0.109-0.109-0.308-0.176-0.55-0.176c-0.418,0-0.616,0.308-0.726,0.595
	c-0.066,0.176-0.088,0.373-0.11,0.594v9.527c0.022,0.463,0.154,0.77,0.374,1.012c0.11,0.11,0.264,0.176,0.462,0.176
	c0.506,0,0.704-0.264,0.814-0.594c0.065-0.154,0.088-0.352,0.088-0.594v-2.223H290.98z"/>
<path class="st1" d="M300.77,235.893c-0.022,0.661-0.154,1.254-0.396,1.76c-0.198,0.441-0.505,0.859-0.946,1.189
	c-0.439,0.351-1.034,0.549-1.826,0.549s-1.408-0.198-1.849-0.549c-0.439-0.33-0.726-0.748-0.923-1.189
	c-0.243-0.506-0.374-1.099-0.396-1.76v-9.527c0.022-0.639,0.153-1.231,0.396-1.738c0.197-0.44,0.483-0.88,0.923-1.21
	c0.44-0.33,1.057-0.551,1.849-0.551s1.387,0.221,1.826,0.551c0.441,0.33,0.748,0.77,0.946,1.21c0.242,0.507,0.374,1.1,0.396,1.738
	V235.893z M298.393,226.365c0-0.439-0.088-0.748-0.308-1.013c-0.11-0.109-0.286-0.175-0.484-0.175c-0.418,0-0.616,0.307-0.704,0.593
	c-0.065,0.177-0.088,0.374-0.088,0.595v9.527c0,0.462,0.11,0.77,0.33,1.012c0.11,0.11,0.264,0.176,0.462,0.176
	c0.418,0,0.616-0.264,0.704-0.594c0.067-0.154,0.088-0.351,0.088-0.594V226.365z"/>
<polygon class="st1" points="308.513,239.215 306.995,229.05 306.908,228.367 306.774,228.367 306.774,239.215 304.575,239.215 
	304.575,223.043 307.479,223.043 308.887,230.436 308.997,231.294 309.041,231.294 309.151,230.436 310.56,223.043 313.464,223.043 
	313.464,239.215 311.264,239.215 311.264,228.367 311.132,228.367 311.043,229.05 309.525,239.215 "/>
<polygon class="st1" points="317.422,223.043 322.857,223.043 322.857,225.484 319.799,225.484 319.799,229.731 321.999,229.731 
	321.999,232.328 319.799,232.328 319.799,236.772 322.857,236.772 322.857,239.215 317.422,239.215 "/>
<rect x="331.964" y="223.043" class="st1" width="2.377" height="16.172"/>
<polygon class="st1" points="340.808,230.788 340.609,230.039 340.478,230.039 340.478,239.215 338.299,239.215 338.299,223.043 
	340.412,223.043 342.722,231.47 342.92,232.218 343.052,232.218 343.052,223.043 345.23,223.043 345.23,239.215 343.118,239.215 "/>
<path class="st1" d="M354.117,239.215l2.442-16.172h2.904l2.442,16.172h-2.31l-0.44-3.301h-2.288l-0.44,3.301H354.117z
	 M358.145,228.301l-0.066-0.418h-0.132l-0.066,0.418l-0.682,5.105h1.628L358.145,228.301z"/>
<polygon class="st1" points="369.144,239.215 367.626,229.05 367.539,228.367 367.405,228.367 367.405,239.215 365.206,239.215 
	365.206,223.043 368.109,223.043 369.518,230.436 369.628,231.294 369.672,231.294 369.782,230.436 371.19,223.043 374.095,223.043 
	374.095,239.215 371.895,239.215 371.895,228.367 371.763,228.367 371.674,229.05 370.156,239.215 "/>
<polygon class="st1" points="378.053,223.043 383.487,223.043 383.487,225.484 380.43,225.484 380.43,229.731 382.63,229.731 
	382.63,232.328 380.43,232.328 380.43,236.772 383.487,236.772 383.487,239.215 378.053,239.215 "/>
<path class="st1" d="M391.254,239.215l-1.232-6.821h-0.638v6.821h-2.377v-16.171h2.377c2.838,0,4.048,1.604,4.048,4.663
	c0,1.606-0.418,3.059-1.318,3.675l1.517,7.833H391.254z M389.384,230.193c0.33,0,0.771-0.044,1.122-0.352
	c0.352-0.309,0.638-0.902,0.638-2.046c0-1.145-0.286-1.761-0.638-2.069c-0.352-0.307-0.792-0.33-1.122-0.33V230.193z"/>
<rect x="397.148" y="223.043" class="st1" width="2.377" height="16.172"/>
<path class="st1" d="M409.668,233.67v2.223c-0.021,0.66-0.154,1.255-0.396,1.76c-0.199,0.44-0.507,0.858-0.947,1.188
	c-0.439,0.352-1.034,0.55-1.826,0.55s-1.408-0.198-1.849-0.55c-0.439-0.33-0.726-0.748-0.923-1.188
	c-0.243-0.505-0.374-1.1-0.396-1.76v-9.527c0.022-0.639,0.153-1.232,0.396-1.738c0.197-0.44,0.483-0.88,0.923-1.21
	c0.44-0.33,1.057-0.551,1.849-0.551s1.387,0.221,1.826,0.551c0.44,0.33,0.748,0.77,0.947,1.21c0.241,0.506,0.374,1.1,0.396,1.738
	v2.222h-2.223v-2.222c0-0.44-0.11-0.748-0.353-1.013c-0.109-0.109-0.308-0.176-0.55-0.176c-0.418,0-0.616,0.308-0.726,0.595
	c-0.066,0.176-0.088,0.373-0.11,0.594v9.527c0.022,0.463,0.154,0.77,0.374,1.012c0.11,0.11,0.264,0.176,0.462,0.176
	c0.506,0,0.704-0.264,0.814-0.594c0.065-0.154,0.088-0.352,0.088-0.594v-2.223H409.668z"/>
<path class="st1" d="M412.636,239.215l2.442-16.172h2.904l2.442,16.172h-2.31l-0.44-3.301h-2.288l-0.44,3.301H412.636z
	 M416.663,228.301l-0.066-0.418h-0.132l-0.066,0.418l-0.682,5.105h1.628L416.663,228.301z"/>
<path class="st1" d="M192.524,267.467h-2.819l-0.44-3.302h-1.85l-0.44,3.302h-2.82l2.518-16.672h3.333L192.524,267.467z
	 M190.144,266.967h1.8l-2.366-15.672h-2.474l-2.367,15.672h1.801l0.44-3.302h2.725L190.144,266.967z M189.439,261.657h-2.199
	l0.82-6.021h0.56l0.099,0.634L189.439,261.657z M187.812,261.157h1.057l-0.529-3.955L187.812,261.157z"/>
<path class="st1" d="M202.714,267.466h-2.553l-2.199-8.022v8.022h-2.678v-16.671h2.553l2.199,8.024v-8.024h2.678V267.466z
	 M200.543,266.966h1.671v-15.671h-1.678v9.175h-0.575l-0.247-0.935l-2.259-8.24h-1.671v15.671h1.678v-9.175h0.574l0.248,0.934
	L200.543,266.966z"/>
<path class="st1" d="M184.446,267.215l2.442-16.172h2.904l2.443,16.172h-2.31l-0.44-3.301h-2.288l-0.441,3.301H184.446z
	 M188.473,256.301l-0.066-0.418h-0.132l-0.067,0.418l-0.681,5.105h1.628L188.473,256.301z"/>
<polygon class="st1" points="198.021,258.788 197.823,258.039 197.691,258.039 197.691,267.215 195.512,267.215 195.512,251.043 
	197.625,251.043 199.935,259.47 200.133,260.218 200.265,260.218 200.265,251.043 202.444,251.043 202.444,267.215 200.332,267.215 
	"/>
<path class="st1" d="M206.402,267.215v-16.172h1.87c2.201,0,3.389,0.44,4.028,1.672c0.616,1.232,0.704,3.257,0.704,6.425
	c0,3.169-0.088,5.171-0.704,6.403c-0.639,1.232-1.827,1.672-4.028,1.672H206.402z M208.779,264.839c0.813,0,1.275-0.089,1.518-0.881
	c0.11-0.374,0.198-0.945,0.22-1.716s0.022-1.804,0.022-3.125c0-1.319,0-2.354-0.022-3.124c-0.022-0.748-0.11-1.32-0.22-1.716
	c-0.243-0.771-0.705-0.858-1.518-0.858V264.839z"/>
<polygon class="st1" points="226.576,260.174 224.728,260.174 224.728,267.215 222.351,267.215 222.351,251.043 224.728,251.043 
	224.728,257.731 226.576,257.731 226.576,251.043 228.953,251.043 228.953,267.215 226.576,267.215 "/>
<path class="st1" d="M239.094,263.893c-0.023,0.661-0.154,1.254-0.397,1.76c-0.198,0.441-0.505,0.859-0.946,1.189
	c-0.439,0.351-1.034,0.549-1.826,0.549s-1.408-0.198-1.849-0.549c-0.439-0.33-0.725-0.748-0.923-1.189
	c-0.243-0.506-0.374-1.099-0.396-1.76v-9.527c0.022-0.639,0.153-1.231,0.396-1.738c0.198-0.44,0.484-0.88,0.923-1.21
	c0.441-0.33,1.057-0.551,1.849-0.551s1.387,0.221,1.826,0.551c0.441,0.33,0.748,0.77,0.946,1.21c0.243,0.507,0.374,1.1,0.397,1.738
	V263.893z M236.717,254.365c0-0.439-0.088-0.748-0.308-1.013c-0.11-0.109-0.286-0.175-0.484-0.175c-0.418,0-0.616,0.307-0.704,0.593
	c-0.066,0.177-0.088,0.374-0.088,0.595v9.527c0,0.462,0.11,0.77,0.33,1.012c0.11,0.11,0.264,0.176,0.462,0.176
	c0.418,0,0.616-0.264,0.704-0.594c0.067-0.154,0.088-0.351,0.088-0.594V254.365z"/>
<polygon class="st1" points="246.31,267.215 244.461,267.215 242.283,251.043 244.484,251.043 245.429,259.447 245.473,259.976 
	245.65,259.976 245.715,259.447 246.728,251.043 248.444,251.043 249.456,259.447 249.522,259.976 249.698,259.976 249.742,259.447 
	250.688,251.043 252.888,251.043 250.71,267.215 248.862,267.215 247.762,259.558 247.629,258.611 247.541,258.611 247.41,259.558 
	"/>
<rect x="261.796" y="251.043" class="st1" width="2.377" height="16.172"/>
<polygon class="st1" points="267.296,253.484 267.296,251.044 274.161,251.044 274.161,253.484 271.917,253.484 271.917,267.215 
	269.54,267.215 269.54,253.484 "/>
<rect x="282.85" y="251.043" class="st1" width="2.377" height="16.172"/>
<path class="st1" d="M293.124,255.377c0-0.528-0.021-1.122-0.176-1.584c-0.154-0.44-0.396-0.748-0.77-0.748
	c-0.616,0.021-0.814,0.66-0.814,1.606c0,0.55,0.242,1.122,0.594,1.738c0.354,0.616,0.814,1.254,1.276,1.936
	c0.55,0.814,1.101,1.65,1.519,2.465c0.418,0.815,0.704,1.65,0.704,2.53c0,1.078-0.177,2.09-0.683,2.838
	c-0.505,0.749-1.32,1.232-2.618,1.232c-1.519,0-2.376-0.572-2.86-1.451c-0.483-0.881-0.594-2.047-0.594-3.257l2.332-0.221
	c0,0.683,0.021,1.364,0.198,1.87c0.153,0.528,0.418,0.881,0.924,0.881c0.704,0,0.968-0.748,0.968-1.782
	c0-0.528-0.264-1.145-0.616-1.782c-0.196-0.309-0.396-0.639-0.614-0.969c-0.464-0.66-0.97-1.407-1.498-2.222
	c-0.527-0.814-0.924-1.65-1.166-2.509c-0.132-0.418-0.197-0.858-0.197-1.298c0-0.88,0.197-1.826,0.704-2.553
	c0.506-0.704,1.275-1.21,2.397-1.232c1.431-0.021,2.267,0.573,2.729,1.431c0.462,0.88,0.595,1.958,0.595,2.86L293.124,255.377z"/>
<polygon class="st1" points="303.683,253.484 303.683,251.044 310.548,251.044 310.548,253.484 308.304,253.484 308.304,267.215 
	305.927,267.215 305.927,253.484 "/>
<path class="st1" d="M312.526,267.215l2.442-16.172h2.904l2.442,16.172h-2.31l-0.44-3.301h-2.288l-0.44,3.301H312.526z
	 M316.554,256.301l-0.066-0.418h-0.132l-0.066,0.418l-0.682,5.105h1.628L316.554,256.301z"/>
<polygon class="st1" points="325.222,267.215 322.889,267.215 325.507,258.722 322.933,251.043 325.266,251.043 326.563,255.135 
	326.63,255.333 326.718,255.333 326.784,255.135 328.082,251.043 330.414,251.043 327.84,258.722 330.458,267.215 328.126,267.215 
	326.762,262.396 326.718,262.198 326.63,262.198 326.585,262.396 "/>
<polygon class="st1" points="333.712,251.043 339.147,251.043 339.147,253.484 336.089,253.484 336.089,257.731 338.289,257.731 
	338.289,260.328 336.089,260.328 336.089,264.772 339.147,264.772 339.147,267.215 333.712,267.215 "/>
<path class="st1" d="M342.666,267.215v-16.172h1.87c2.201,0,3.389,0.44,4.028,1.672c0.614,1.232,0.704,3.257,0.704,6.425
	c0,3.169-0.09,5.171-0.704,6.403c-0.64,1.232-1.827,1.672-4.028,1.672H342.666z M345.043,264.839c0.813,0,1.275-0.089,1.519-0.881
	c0.109-0.374,0.197-0.945,0.22-1.716c0.021-0.771,0.021-1.804,0.021-3.125c0-1.319,0-2.354-0.021-3.124
	c-0.022-0.748-0.11-1.32-0.22-1.716c-0.243-0.771-0.705-0.858-1.519-0.858V264.839z"/>
<path class="st1" d="M225.284,308.285h8.179v1.521h-3.212v8.59h-1.769v-8.59h-3.198V308.285z M236.094,310.031h0.028h0.014
	l1.514,4.356h-3.084L236.094,310.031z M231.312,318.396h1.825l0.948-2.671h4.032l0.948,2.671h1.896l-3.891-10.11h-1.882
	L231.312,318.396z M241.038,308.285h2.108l2.293,3.568l2.392-3.568h1.98l-3.339,4.871l3.58,5.239h-2.151l-2.519-3.865l-2.561,3.865
	h-2.023l3.58-5.239L241.038,308.285z M226.248,319.782h6.976v1.52h-5.207v2.65h4.571v1.447h-4.571v4.493h-1.769V319.782z
	 M238.083,321.001c2.169,0,3.077,1.904,3.077,3.837s-0.908,3.837-3.077,3.837s-3.077-1.904-3.077-3.837
	S235.914,321.001,238.083,321.001 M238.083,319.555c-3.034,0-4.846,2.406-4.846,5.283c0,2.878,1.812,5.283,4.846,5.283
	c3.034,0,4.846-2.405,4.846-5.283C242.929,321.961,241.117,319.555,238.083,319.555 M243.58,319.782h1.769v5.891
	c0,1.359,0.085,2.931,2.374,2.931c2.29,0,2.375-1.571,2.375-2.931v-5.891h1.769v6.471c0,2.59-1.656,3.87-4.144,3.87
	c-2.487,0-4.143-1.28-4.143-3.87V319.782z M252.991,319.782h1.865l4.602,7.448h0.028v-7.448h1.681v10.11h-1.865l-4.587-7.433h-0.043
	v7.433h-1.681V319.782z M264.482,321.23h1.735c2.766,0,3.359,1.584,3.359,3.607c0,2.022-0.594,3.606-3.359,3.606h-1.735V321.23z
	 M262.713,329.891h4.182c3.105,0,4.45-2.267,4.45-5.053s-1.345-5.054-4.45-5.054h-4.182V329.891z M275.969,321.528h0.028h0.014
	l1.514,4.357h-3.084L275.969,321.528z M271.187,329.893h1.825l0.948-2.671h4.033l0.946,2.671h1.897l-3.892-10.11h-1.883
	L271.187,329.893z M279.139,319.782h8.181v1.52h-3.214v8.591h-1.769v-8.591h-3.198V319.782z M287.928,319.782h1.77v10.11h-1.77
	V319.782z M295.306,321.001c2.17,0,3.077,1.904,3.077,3.837s-0.907,3.837-3.077,3.837s-3.077-1.904-3.077-3.837
	S293.136,321.001,295.306,321.001 M295.306,319.555c-3.034,0-4.846,2.406-4.846,5.283c0,2.878,1.812,5.283,4.846,5.283
	c3.035,0,4.847-2.405,4.847-5.283C300.152,321.961,298.341,319.555,295.306,319.555 M300.847,319.782h1.865l4.602,7.448h0.028
	v-7.448h1.681v10.11h-1.864l-4.588-7.433h-0.041v7.433h-1.683V319.782z M256.998,300.685v0.143c0,0.059,0.021,0.105,0.079,0.105
	c0.058,0,0.078-0.047,0.078-0.105v-0.143c0-0.058-0.02-0.105-0.078-0.105C257.019,300.579,256.998,300.627,256.998,300.685
	 M259.978,300.325v0.201c0,0.059,0.02,0.105,0.078,0.105c0.059,0,0.079-0.047,0.079-0.105v-0.201c0-0.058-0.02-0.104-0.079-0.104
	C259.998,300.221,259.978,300.268,259.978,300.325 M266.513,284.179c-9.44,0-17.094,7.652-17.094,17.093
	c0,3.558,1.088,6.861,2.948,9.597l0.397-0.194v-1.863c0-0.315,0.314-0.354,0.314-0.152v1.471c0,0.345,0.314,0.431,0.314,0.076v-2.12
	c0-0.345,0.627-0.393,0.627-0.182v1.977c0,0.313,0.314,0.313,0.314,0v-2.302c0-0.276,0.627-0.344,0.627-0.134v2.121
	c0,0.314,0.314,0.314,0.314,0v-2.331c0-0.22,0.627-0.354,0.627-0.096v2.083c0,0.315,0.313,0.258,0.313,0.019v-2.217
	c0-0.248,0.245-0.365,0.405-0.274c0.249,0.141,0.386-0.012,0.406,0.236c0.025,0.324-0.019,1.816-0.019,2.026
	c0,0.239,0.306,0.219,0.306-0.02v-2.265c0-0.057,0.48-0.219,0.518-0.016c0.031,0.175,0.423,0.054,0.423,0.255v1.972
	c0,0.157,0.314,0.157,0.314,0v-2.307c0-0.171,0.514-0.102,0.513,0.121c0,0.184,0.444,0.064,0.448,0.191c0.009,0.269,0,1.837,0,1.994
	s0.293,0.157,0.293,0v-2.316c0-0.113,0.427-0.21,0.474,0.012c0.042,0.198,0.467,0.119,0.467,0.343v1.938
	c0,0.249,0.314,0.183,0.314-0.057v-2.026c0-0.143,0.371-0.204,0.473-0.036c0.143,0.237,0.387,0.108,0.387,0.275
	c0,0.335,0.009,1.559,0,1.769c0,0.306,0.334,0.344,0.334,0.028c0-0.249-0.004-1.825,0-1.835c0.105-0.248,0.516,0.439,0.707,0.153
	c0,0,0.487-0.602-0.133-0.764c-4.465-1.168-7.549,0.009-8.925,0.726c-0.095,0.049-0.408,0.198-0.695,0.366
	c-0.267,0.158-0.489,0.33-0.479,0.293c0.154-0.619,0.134-0.631,0.873-1.055c2.694-1.548,6.279-1.71,9.639-0.838
	c0.737,0.191,1.351,0.535,1.351,0.373s-0.362-0.336-1.121-0.602c-1.089-0.382-6.341-1.567-10.402,1.07
	c-0.177,0.113,0.464-0.65,0.934-0.822v-0.659l-0.314-0.497v-0.354c2.353-1.824,6.767-1.739,8.869-1.185
	c0.711,0.188,1.215,0.479,1.23,0.306c0.014-0.174-1.271-0.584-1.563-0.649c-2.302-0.516-5.253-0.392-7.669,0.563
	c-0.318,0.126-0.581,0.301-0.605,0.254c-0.041-0.081,0.243-0.464,0.391-0.606c1.959-1.873,6.393-1.328,6.632-1.3
	c0.609,0.073,1.576,0.344,1.586,0.214c0.01-0.13-0.622-0.341-1.538-0.452c-3.211-0.392-5.064,0.276-5.951,0.665
	c-0.18,0.079-0.27,0.136-0.343,0.101c-0.073-0.034,0.031-0.324,0.093-0.47c0,0,0.794-2.016,3.109-3.476
	c-0.006,0.003,0.307-0.624,0.621-0.958v-0.869c0-0.182-0.306-0.58-0.306-0.58s-0.075-0.152-0.004-0.252
	c0.468-0.65,0.841-0.946,0.841-1.194c0-0.315,0.076-1.986,0.306-1.986c0.229,0,0.305,1.729,0.305,2.063
	c0,0.315,0.478,0.611,0.832,1.127c0.065,0.096-0.02,0.258-0.02,0.258s-0.257,0.307-0.267,0.564
	c-0.013,0.353-0.005,0.861,0.004,0.868c0.464,0.345,0.631,0.966,0.617,0.957c2.943,1.911,3.116,4.355,3.201,4.414
	c0.793,0.545,1.223,1.539,1.223,1.539s0.029,0.209,0.004,0.439c-0.024,0.23-0.324,0.495-0.324,0.495l0.005,0.45
	c0.573,0.325,1.213,1.061,1.367,1.328c0.09,0.16-0.068,0.793-0.068,0.793s-0.181,0.421-0.372,0.745c-0.042,0.07,0,1.146,0,1.146
	l13.185,3.102c2.8-3.044,4.509-7.105,4.509-11.567C283.604,291.831,275.952,284.179,266.513,284.179 M273.935,301.22v-1.086
	c0-0.936,0.43-1.184,1.014-1.184c0.772,0,1.024,0.484,1.024,0.981v0.225h-0.784v-0.331c0-0.184-0.059-0.285-0.223-0.285
	c-0.293,0-0.247,0.339-0.247,0.747v0.789c0,0.653,0.019,0.771,0.247,0.802c0.234-0.007,0.223-0.226,0.223-0.492v-0.288h0.784v0.288
	c0,0.698-0.264,1.081-1.024,1.081C274.27,302.467,273.935,302.107,273.935,301.22 M271.112,299.06h0.783v0.313h-0.049
	c0.171-0.313,0.515-0.426,0.691-0.426c0.438,0,0.769,0.259,0.769,0.856v2.55h-0.784v-2.202c0-0.325,0.004-0.537-0.285-0.549
	c-0.29-0.012-0.342,0.26-0.342,0.614v2.137h-0.783V299.06z M266.094,301.127v-0.343h0.941v0.277
	c-0.157,0.432,0.081,0.746,0.494,0.746c0.348,0,0.499-0.184,0.499-0.521c0-0.259-0.126-0.436-0.339-0.584
	c-0.431-0.336-0.972-0.577-1.31-1.02c-0.136-0.201-0.215-0.443-0.215-0.679c0-0.757,0.426-1.171,1.297-1.171
	c1.322,0,1.286,1.018,1.292,1.453l-0.801,0.002c0.006-0.396-0.03-0.786-0.483-0.786c-0.277,0-0.454,0.112-0.454,0.415
	c0,0.337,0.212,0.467,0.469,0.622c0.273,0.173,0.777,0.504,1.007,0.729c0.283,0.278,0.373,0.545,0.373,0.929
	c0,0.841-0.58,1.278-1.393,1.278C266.474,302.476,266.094,301.921,266.094,301.127 M270.171,307.527h-0.784v-2.979h-1.098v-0.611
	c0.628-0.006,1.084-0.173,1.25-0.8h0.632V307.527z M270.328,302.353h-0.784v-3.293h0.784V302.353z M270.328,298.589h-0.784v-0.627
	h0.784V298.589z M273.464,305.904c0,1.413-0.428,1.815-1.305,1.815c-0.651,0-1.146-0.35-1.121-0.977h0.77
	c0.006,0.156-0.015,0.345,0.32,0.326c0.469,0,0.395-0.59,0.395-0.857v-0.284c0,0.142-0.229,0.295-0.614,0.295
	c-0.707,0-0.991-0.479-0.991-1.391c0-1.113,0.308-1.688,1.271-1.688c0.992,0,1.276,0.645,1.276,1.688V305.904z M274.965,307.696
	c-1.146,0-1.344-0.841-1.187-1.305v-0.276h0.699c0.019,0.314-0.059,0.923,0.471,0.923c0.458,0,0.445-0.424,0.445-0.841
	c0-0.137-0.006-0.36-0.095-0.468c-0.154-0.185-0.518-0.178-0.75-0.178l0.008-0.65c0.171-0.011,0.361,0.007,0.521-0.064
	c0.225-0.106,0.255-0.325,0.255-0.544c0-0.339-0.113-0.498-0.386-0.498c-0.173,0-0.386,0.064-0.386,0.349v0.247h-0.794
	c-0.047-0.784,0.319-1.28,1.162-1.28c0.833,0,1.179,0.455,1.179,1.159c0,0.384-0.136,0.869-0.605,0.934v0.013
	c0.47,0.047,0.726,0.396,0.714,1.081C276.217,307.171,275.881,307.696,274.965,307.696 M277.59,298.95
	c1.075,0,1.206,0.555,1.206,1.463v0.371h-1.568v0.567c0,0.442,0.203,0.531,0.436,0.531c0.286,0,0.398-0.157,0.388-0.628h0.771
	c0.029,0.783-0.316,1.218-1.106,1.218c-0.89,0-1.271-0.424-1.271-1.414v-0.875C276.444,299.398,276.83,298.95,277.59,298.95
	 M278.29,305.942c-0.136,0.527-0.229,1.114-0.252,1.585h-0.853c0.065-0.784,0.361-1.787,0.705-2.657
	c0.095-0.235,0.308-0.636,0.508-0.949H276.6v-0.627h2.511v0.538C278.796,304.525,278.473,305.209,278.29,305.942 M257.626,300.483
	v0.201c0,0.058,0.098,0.104,0.157,0.104c0.057,0,0.156-0.047,0.156-0.104v-0.201c0-0.058-0.099-0.104-0.156-0.104
	C257.724,300.379,257.626,300.426,257.626,300.483 M258.567,300.369v0.2c0,0.059,0.02,0.105,0.078,0.105s0.078-0.047,0.078-0.105
	v-0.2c0-0.059-0.02-0.105-0.078-0.105S258.567,300.311,258.567,300.369 M259.194,300.321v0.2c0,0.058,0.099,0.105,0.157,0.105
	c0.058,0,0.157-0.048,0.157-0.105v-0.2c0-0.058-0.099-0.105-0.157-0.105C259.293,300.216,259.194,300.264,259.194,300.321
	 M259.552,310.254l-2.833-0.545l-4.104,1.515c0.108,0.152,0.22,0.301,0.333,0.448l3.79-1.39l2.818,0.479l2.217-0.927l16.562,3.781
	c0.063-0.061,0.126-0.122,0.188-0.184l-16.748-4.052C261.661,309.495,259.552,310.254,259.552,310.254 M259.556,311.811
	l-2.828-0.448l-3.079,1.164c0.141,0.161,0.284,0.319,0.431,0.475l2.291-0.894v2.924c0.206,0.152,0.415,0.299,0.627,0.442v-3.366
	l2.196,0.334v4.28c0.258,0.123,0.519,0.239,0.784,0.348v-4.723l1.411-0.564v5.802c0.208,0.064,0.417,0.125,0.628,0.182v-6.184
	l0.627,0.134v6.209c0.207,0.049,0.417,0.092,0.627,0.132v-6.203l0.627,0.135v6.177c0.208,0.032,0.417,0.06,0.628,0.084v-6.138
	l0.627,0.134v6.065c0.208,0.017,0.417,0.029,0.627,0.037v-5.968l0.627,0.134v5.85c0.036,0,0.071,0.001,0.106,0.001
	c0.174,0,0.348-0.003,0.522-0.008v-5.709l0.627,0.134v5.544c0.21-0.014,0.419-0.03,0.627-0.052v-5.359l0.628,0.124v5.157
	c0.157-0.021,0.313-0.046,0.47-0.073v-4.949l0.627,0.134v4.699c0.211-0.044,0.42-0.094,0.627-0.145v-4.421l0.628,0.124v4.129
	c0.211-0.061,0.42-0.126,0.627-0.195v-3.8l0.627,0.133v3.445c0.211-0.079,0.422-0.162,0.629-0.249v-3.062l0.47,0.134v2.718
	c-0.007,0.005-0.015,0.008-0.021,0.012c0.219-0.099,0.435-0.203,0.647-0.312v-2.284l0.627,0.124v1.824
	c0.213-0.119,0.422-0.243,0.628-0.371v-1.319l0.627,0.135v0.777c0.488-0.333,0.958-0.69,1.408-1.071l-15.765-3.4L259.556,311.811z
	 M277.228,300.313h0.784v-0.331c0-0.336-0.1-0.442-0.41-0.442c-0.386,0-0.374,0.296-0.374,0.597V300.313z M258.998,309.615
	c0.931,0.002,1.315,0.247,1.319-0.016c0.004-0.196-0.446-0.301-1.339-0.283c-1.122,0.021-1.247,0.106-1.243,0.34
	C257.738,309.824,257.989,309.613,258.998,309.615 M272.154,303.795c-0.435,0.006-0.387,0.408-0.387,0.978
	c0,0.32-0.042,0.8,0.404,0.8c0.411,0,0.411-0.432,0.411-0.8C272.589,304.221,272.6,303.753,272.154,303.795 M255.665,301.157v0.076
	c0,0.058,0.046,0.105,0.104,0.105c0.059,0,0.105-0.048,0.105-0.105v-0.076c0-0.058-0.046-0.104-0.105-0.104
	C255.711,301.053,255.665,301.1,255.665,301.157 M254.96,304.383v0.983c0,0.061,0.018,0.11,0.078,0.11
	c0.061,0,0.079-0.05,0.079-0.11v-0.983c0-0.062-0.018-0.111-0.079-0.111C254.978,304.271,254.96,304.321,254.96,304.383
	 M257.312,303.587v1.123c0,0.067,0.088,0.124,0.157,0.124c0.069,0,0.157-0.057,0.157-0.124v-1.123c0-0.069-0.088-0.124-0.157-0.124
	C257.4,303.463,257.312,303.518,257.312,303.587 M256.397,300.799c-0.058,0-0.104,0.047-0.104,0.105v0.076
	c0,0.058,0.046,0.105,0.104,0.105s0.105-0.048,0.105-0.105v-0.076C256.502,300.846,256.455,300.799,256.397,300.799
	 M254.333,304.778v0.852c0,0.06,0.017,0.109,0.078,0.109c0.061,0,0.078-0.05,0.078-0.109v-0.852c0-0.061-0.017-0.109-0.078-0.109
	C254.35,304.669,254.333,304.718,254.333,304.778 M255.587,303.988v1.122c0,0.068,0.089,0.124,0.157,0.124
	c0.068,0,0.157-0.056,0.157-0.124v-1.122c0-0.069-0.089-0.124-0.157-0.124C255.676,303.864,255.587,303.919,255.587,303.988
	 M259.194,303.377v1.122c0,0.068,0.01,0.124,0.078,0.124c0.069,0,0.079-0.056,0.079-0.124v-1.122c0-0.069-0.01-0.125-0.079-0.125
	C259.204,303.252,259.194,303.308,259.194,303.377 M260.919,303.434v1.123c0,0.069,0.009,0.124,0.078,0.124
	c0.069,0,0.079-0.055,0.079-0.124v-1.123c0-0.069-0.01-0.124-0.079-0.124C260.928,303.31,260.919,303.364,260.919,303.434
	 M259.978,303.366v1.123c0,0.068,0.088,0.124,0.157,0.124c0.069,0,0.157-0.056,0.157-0.124v-1.123c0-0.067-0.088-0.124-0.157-0.124
	C260.066,303.242,259.978,303.299,259.978,303.366 M256.371,303.771v1.123c0,0.068,0.088,0.124,0.157,0.124s0.157-0.056,0.157-0.124
	v-1.123c0-0.069-0.088-0.124-0.157-0.124S256.371,303.701,256.371,303.771 M258.253,303.452v1.123c0,0.068,0.088,0.124,0.157,0.124
	c0.068,0,0.157-0.056,0.157-0.124v-1.123c0-0.068-0.089-0.124-0.157-0.124C258.341,303.328,258.253,303.384,258.253,303.452"/>
</svg>
